/* XPM */
static char * butt_xpm[] = {
"30 30 91 1",
" 	c None",
".	c #838783",
"+	c #676667",
"@	c #343434",
"#	c #302F30",
"$	c #3F3E3F",
"%	c #605F60",
"&	c #6D6C6D",
"*	c #888788",
"=	c #8B8F8B",
"-	c #5D5C5D",
";	c #636163",
">	c #7B797B",
",	c #848684",
"'	c #525152",
")	c #313031",
"!	c #737173",
"~	c #6B696B",
"{	c #646364",
"]	c #908F90",
"^	c #595959",
"/	c #8C8E8C",
"(	c #949694",
"_	c #A5A6A5",
":	c #292829",
"<	c #535253",
"[	c #ABABAB",
"}	c #7C807C",
"|	c #000000",
"1	c #9C9E9C",
"2	c #DEDFDE",
"3	c #E7E7E7",
"4	c #EFEFEF",
"5	c #CECFCE",
"6	c #4A494A",
"7	c #424142",
"8	c #5A595A",
"9	c #8A898A",
"0	c #7B7A7B",
"a	c #101010",
"b	c #212021",
"c	c #C6C7C6",
"d	c #D6D7D6",
"e	c #848484",
"f	c #858985",
"g	c #080808",
"h	c #BDBEBD",
"i	c #F7F7F7",
"j	c #8E8D8E",
"k	c #A8ABA8",
"l	c #B5B6B5",
"m	c #A8A7A8",
"n	c #3F3F3F",
"o	c #C1C6C1",
"p	c #949394",
"q	c #505550",
"r	c #181818",
"s	c #B2B2B2",
"t	c #AFAFAF",
"u	c #ADAEAD",
"v	c #616061",
"w	c #7A797A",
"x	c #434243",
"y	c #515051",
"z	c #373637",
"A	c #393839",
"B	c #1F1F1F",
"C	c #504F50",
"D	c #7D7B7D",
"E	c #5B605B",
"F	c #8C8B8C",
"G	c #838383",
"H	c #9F9E9F",
"I	c #B8B8B8",
"J	c #6B6A6B",
"K	c #717071",
"L	c #878787",
"M	c #747374",
"N	c #828082",
"O	c #A1A1A1",
"P	c #AEAEAE",
"Q	c #858585",
"R	c #9C9B9C",
"S	c #989798",
"T	c #A09FA0",
"U	c #7A7A7A",
"V	c #9E9E9E",
"W	c #848284",
"X	c #888A88",
"Y	c #9A9A9A",
"Z	c #B5B5B5",
"           .+@#$%&*           ",
"        =-;>,')!~~!~{]        ",
"       ^~//,,(__(,!!~:<[      ",
"     }|>1>_22333422516789     ",
"    0ab;c222d55cd5523d(~~e    ",
"   f,!gahid5555555c5524(;!j   ",
"  k'/,(|a34ddd55555552d4l8'm  ",
"  ^,85i;|b33d55cc5dcc5524(:n  ",
" o:;_42i6|6435c55c555c5cdi~'p ",
" q:;22532r|;i25c5c5d55cc54h8{ ",
"s8>_355d3dg|/id5555c5c55cd3,8t",
".~8hdc5dd3l||uid55dccc55c54_8*",
"v~822cc5ddi/||52555cc555c5258w",
"x~>3255c552i~|r2d555d5cd55dd'y",
"z~>2255dcc52iA|82555555555d27B",
"#8>35cc55555256h255555c55c22'C",
"@A>3d55555c5d22dddcc5c5cc55d;D",
"E8;2255555ddc5dc55555555552c8F",
"G~'d2d555c55c55c55cc5c55554u;H",
"s8'(3d5cd5555555cc555555c54,>I",
" J!83d5c55cc55c555d555555d5'K ",
" ]>7u3dc55cd55555d5c55d5d4>:L ",
"  M~822d5c55c55ccc55cc553h~N  ",
"  O7''335d5cc5d55c5555d4h6,P  ",
"   Q,6;22cd5555c555ccd4h'(R   ",
"    S,78h32d555555dd23u8/S    ",
"     R/~A(d342222234c>7'T     ",
"      [j!6';,_5dhu>~>,UV      ",
"        ]C>!8'''6;~/FR        ",
"          IHFWXC6FYZ          "};
