/* XPM */
static char * deejay_xpm[] = {
"72 68 186 2",
"  	c None",
". 	c #FFFFFF",
"+ 	c #FBFBFB",
"@ 	c #DBDBDB",
"# 	c #E1E1E1",
"$ 	c #737373",
"% 	c #000000",
"& 	c #0C0C0C",
"* 	c #B0B0B0",
"= 	c #060606",
"- 	c #090909",
"; 	c #161616",
"> 	c #020202",
", 	c #4F4F4F",
"' 	c #0D0D0D",
") 	c #101010",
"! 	c #282828",
"~ 	c #333333",
"{ 	c #030303",
"] 	c #767676",
"^ 	c #D6D6D6",
"/ 	c #F0F0F0",
"( 	c #D9D9D9",
"_ 	c #8A8A8A",
": 	c #151515",
"< 	c #A2A2A2",
"[ 	c #FDFDFD",
"} 	c #F6F6F6",
"| 	c #D2D2D2",
"1 	c #CCCCCC",
"2 	c #EDEDED",
"3 	c #FEFEFE",
"4 	c #B8B8B8",
"5 	c #707070",
"6 	c #D7D7D7",
"7 	c #343434",
"8 	c #232323",
"9 	c #C4C4C4",
"0 	c #909090",
"a 	c #424242",
"b 	c #262626",
"c 	c #EEEEEE",
"d 	c #E6E6E6",
"e 	c #3D3D3D",
"f 	c #2C2C2C",
"g 	c #1D1D1D",
"h 	c #1E1E1E",
"i 	c #E7E7E7",
"j 	c #D5D5D5",
"k 	c #080808",
"l 	c #C7C7C7",
"m 	c #F1F1F1",
"n 	c #DCDCDC",
"o 	c #404040",
"p 	c #181818",
"q 	c #E3E3E3",
"r 	c #D8D8D8",
"s 	c #BEBEBE",
"t 	c #B6B6B6",
"u 	c #AFAFAF",
"v 	c #BFBFBF",
"w 	c #FAFAFA",
"x 	c #E9E9E9",
"y 	c #434343",
"z 	c #BDBDBD",
"A 	c #5E5E5E",
"B 	c #383838",
"C 	c #F5F5F5",
"D 	c #DEDEDE",
"E 	c #0F0F0F",
"F 	c #0A0A0A",
"G 	c #878787",
"H 	c #F8F8F8",
"I 	c #414141",
"J 	c #5B5B5B",
"K 	c #E5E5E5",
"L 	c #565656",
"M 	c #050505",
"N 	c #D3D3D3",
"O 	c #7E7E7E",
"P 	c #010101",
"Q 	c #3C3C3C",
"R 	c #8D8D8D",
"S 	c #EAEAEA",
"T 	c #A3A3A3",
"U 	c #070707",
"V 	c #828282",
"W 	c #F9F9F9",
"X 	c #505050",
"Y 	c #A1A1A1",
"Z 	c #666666",
"` 	c #545454",
" .	c #BABABA",
"..	c #E2E2E2",
"+.	c #C2C2C2",
"@.	c #6F6F6F",
"#.	c #868686",
"$.	c #656565",
"%.	c #1F1F1F",
"&.	c #141414",
"*.	c #CECECE",
"=.	c #F4F4F4",
"-.	c #606060",
";.	c #252525",
">.	c #555555",
",.	c #5F5F5F",
"'.	c #626262",
").	c #5A5A5A",
"!.	c #4B4B4B",
"~.	c #040404",
"{.	c #5C5C5C",
"].	c #FCFCFC",
"^.	c #646464",
"/.	c #797979",
"(.	c #F7F7F7",
"_.	c #F3F3F3",
":.	c #171717",
"<.	c #4D4D4D",
"[.	c #6D6D6D",
"}.	c #525252",
"|.	c #313131",
"1.	c #202020",
"2.	c #454545",
"3.	c #6E6E6E",
"4.	c #5D5D5D",
"5.	c #7F7F7F",
"6.	c #515151",
"7.	c #949494",
"8.	c #303030",
"9.	c #111111",
"0.	c #686868",
"a.	c #0B0B0B",
"b.	c #818181",
"c.	c #EBEBEB",
"d.	c #9A9A9A",
"e.	c #717171",
"f.	c #777777",
"g.	c #1B1B1B",
"h.	c #808080",
"i.	c #363636",
"j.	c #999999",
"k.	c #2B2B2B",
"l.	c #7A7A7A",
"m.	c #4E4E4E",
"n.	c #6A6A6A",
"o.	c #3E3E3E",
"p.	c #6B6B6B",
"q.	c #636363",
"r.	c #484848",
"s.	c #222222",
"t.	c #575757",
"u.	c #3B3B3B",
"v.	c #7B7B7B",
"w.	c #191919",
"x.	c #1A1A1A",
"y.	c #2F2F2F",
"z.	c #6C6C6C",
"A.	c #3A3A3A",
"B.	c #464646",
"C.	c #373737",
"D.	c #595959",
"E.	c #2E2E2E",
"F.	c #7D7D7D",
"G.	c #787878",
"H.	c #474747",
"I.	c #0E0E0E",
"J.	c #888888",
"K.	c #121212",
"L.	c #3F3F3F",
"M.	c #616161",
"N.	c #292929",
"O.	c #212121",
"P.	c #727272",
"Q.	c #757575",
"R.	c #838383",
"S.	c #353535",
"T.	c #7C7C7C",
"U.	c #494949",
"V.	c #242424",
"W.	c #676767",
"X.	c #696969",
"Y.	c #4A4A4A",
"Z.	c #585858",
"`.	c #747474",
" +	c #CACACA",
".+	c #ECECEC",
"                                                                                                                                                ",
"                                                                                                                                                ",
"                                                                                                                                                ",
"                      . + @ @ @ @ @ @ @ @ @ @ @ @ @ @ @ @ @ @ @ @ @ @ @ @ @ @ @ @ @ @ @ @ @ @ @ @ @ @ @ @ @ @ @ @ @ @ @ @ # .                   ",
"                      . $ % % % % % % % % % % % % % % % % % % % % % % % % % % % % % % % % % % % % % % % % % % % % % % % % & * .                 ",
"                      . = % - ; ; ; ; ; ; ; ; ; ; ; ; ; ; ; ; ; ; ; ; ; ; ; ; ; ; ; ; ; ; ; ; ; ; ; ; ; ; ; ; ; ; ; ; ; > % , .                 ",
"                      . = ' - % % % % > ) ! ~ ; { % % % % % % % % % % % % % % % % % % % % % % % % % % % % % % % % % % % ' % , .                 ",
"                      . = ' - % % % ' ] ^ / / ( _ : % % % % % % % % % % % % % % % % % % % % % % % % % % % % % % % % % % ; % , .                 ",
"                      . = ' - % % - < [ } | 1 2 3 4 : % % % % % % % % % % % % % % % % % % % % % % % % % % % % % % % % % ; % , .                 ",
"                      . = ' - % % 5 3 6 7 % % 8 9 . 0 > % % % % % % % % % % % % % % % % % % % % % % % % % % % % % % % % ; % , .                 ",
"                      . = ' - % - 1 } a % % % % b c d e f f f f f f f f f f f f f f f f f f g % % % % % % % % % % % % % ; % , .                 ",
"                      . = ' - % h i j & % % % % k l . m / / / / / / / / / / / / / / / / / / n o % % % % % % % % % % % % ; % , .                 ",
"                      . = ' - % p q r : % % % % k s . t u u u u u u u u u u u u u u u u u v w x y % % % % % % % % % % % ; % , .                 ",
"                      . = ' - % - z w A % % % % B C D E % % % % % % % % % % % % % % % % % F G H d I % % % % % % % % % % ; % , .                 ",
"                      . = ' - % % J [ K L > M I N . O P % % % % % % % % % % % % % % % % % % & G + d Q % % % % % % % % % ; % , .                 ",
"                      . = ' - % % % R H . S x + [ T k % % % % % % % % % % % % % % % % % % % % U V W / X Y Z > % % % % % ; % , .                 ",
"                      . = ' - % % % - `  .# ..+.@.F % % % % % % % % % % % % % % % % % % % % % % F #.H W . C $.% % % % % ; % , .                 ",
"                      . = ' - % % % % % = %.; F % % % % % % % % % % % % % % % % % % % % % % % % % &.*.. 2 =.} -.% % % % ; % , .                 ",
"                      . = ' - % % % % % % % % % % % % % % % % > ) ;.Q >.,.'.).!.! p ~.% % % % % % {.w ].^./.(._.L > % % ; % , .                 ",
"                      . = ' - % % % % % % % % % % % % % % :.<.[.'.}.|.1.) : &.f 2.,.3.4.! P % % % = 5.+ d 6.7.. m 8.% % ; % , .                 ",
"                      . = ' - % % % % % % % % % % % % 9.@.0.f a.% % % % % % % % % % ~.h }.5.~ % % % M b.. c.# . d.- % % ; % , .                 ",
"                      . = ' - % % % % % % % % % % F 6.e.E % % % % % % % % % % % % % % % % > X f.g.% % > O w 3 7.M % % % ; % , .                 ",
"                      . = ' - % % % % % % % % % h h.i.P % % % % % % % % % % % % % % % % % % % &.5 !.{ % M O j.= % % % % ; % , .                 ",
"                      . = ' - % % % % % % % % k.l.:.% % % % % % % % % % % % % % % % % % % % % % M m.0.~.% M k % % % % % ; % , .                 ",
"                      . = ' - % % % % % % P B n.& % % % % % % % % % % % % % % % % % % % % % % % % % o.p.= % % % % % % % ; % , .                 ",
"                      . = ' - % % % % % % k.] k % % % % % % % % % % % % % % % % % % % % % % % % % % % o q.~.% % % % % % ; % , .                 ",
"                      . = ' - % % % % % 9.h.9.% % % % % % % % % % % % % % % % % % % % % % % % % % % % P {.r.% % % % % % ; % , .                 ",
"                      . = ' - % % % % ~.$ s.% % % % % % % % % % % % % % % % % % % % % % % % % % % % % % ~.5 s.% % % % % ; % , .                 ",
"                      . = ' - % % % % B t.P % % % % % % % % % % % % % % % % % % % % % % % % % % % % % % % g l.% % % % % ; % , .                 ",
"                      . = ' - % % % U /.) % % % % % % % % % % % % % % % % % % % % % % % % % % % % % % % % % '.k.% % % % ; % , .                 ",
"                      . = ' - % % % u.!.% % % % % % % % % % % % % % % % % % % % % % % % % % % % % % % % % % ) v.> % % % ; % , .                 ",
"                      . = ' - % % % 3.: % % % % % % % % % % % % % % % % % % % % % % % % % % % % % % % % % % P q.w.% % % ; % , .                 ",
"                      . = ' - % % x.Z % % % % % % % % % % % % % % % % % % % % % % % % % % % % % % % % % % % % y.6.% % % ; % , .                 ",
"                      . = ' - % % y o % % % % % % % % % % % % % % % % % % % % % % % % % % % % % % % % % % % % ) [.= % % ; % , .                 ",
"                      . = ' - % % [.' % % % % % % % % % % % % % % % % % % % % % % % % % % % % % % % % % % % % % [.' % % ; % , .                 ",
"                      . = ' - % % z.M % % % % % % % % % % % % % % % % % % % % % % % % % % % % % % % % % % % % % t.8 % % ; % , .                 ",
"                      . = ' - % ' 0.> % % % % % % % % % % % % % % % % % % % % % % % % % % % % % % % % % % % % % !.y.% % ; % , .                 ",
"                      . = ' - % ' -.P % % % % % % % % % % % % % % % % % % % % % % % % % % % % % % % % % % % % % a a % % ; % , .                 ",
"                      . = ' - % ' -.P % % % % % % % % % % % % % % % % % % % % % % % % % % % % % % % % % % % % % a a % % ; % , .                 ",
"                      . = ' - % ' -.P % % % % % % % % % % % % % % % % % % % % % % % % % % % % % % % % % % % % % a a % % ; % , .                 ",
"                      . = ' - % - '.> % % % % % % % % % % % % % % % % % % % % % % % % % % % % % % % % % % % % % y A.% % ; % , .                 ",
"                      . = ' - % = [.~.% % % % % % % % % % % % % % % % % % % % % % % % % % % % % % % % % % % % % 6.b % % ; % , .                 ",
"                      . = ' - % % ] F % % % % % % % % % % % % % % % % % % % % % % % % % % % % % % % % % % % % % [.' % % ; % , .                 ",
"                      . = ' - % % B.C.% % % % % % % % % % % % % % % % % % % % % % % % % % % % % % % % % % % % - $ U % % ; % , .                 ",
"                      . = ' - % % 1.^.% % % % % % % % % % % % % % % % % % % % % % % % % % % % % % % % % % % % f -.P % % ; % , .                 ",
"                      . = ' - % % % 5.U % % % % % % % % % % % % % % % % % % % % % % % % % % % % % % % % % % % D.E.% % % ; % , .                 ",
"                      . = ' - % % % <.a % % % % % % % % % % % % % % % % % % % % % % % % % % % % % % % % % % M F.U % % % ; % , .                 ",
"                      . = ' - % % % ) G.k % % % % % % % % % % % % % % % % % % % % % % % % % % % % % % % % % H.B.% % % % ; % , .                 ",
"                      . = ' - % % % % , e % % % % % % % % % % % % % % % % % % % % % % % % % % % % % % % % I.J.% % % % % ; % , .                 ",
"                      . = ' - % % % % U l.K.% % % % % % % % % % % % % % % % % % % % % % % % % % % % % % { ^.f % % % % % ; % , .                 ",
"                      . = ' - % % % % % 1.l.% % % % % % % % % % % % % % % % % % % % % % % % % % % % % % y A P % % % % % ; % , .                 ",
"                      . = ' - % % % % % % L.M.{ % % % % % % % % % % % % % % % % % % % % % % % % % % % N.f.M % % % % % % ; % , .                 ",
"                      . = ' - % % % % % % P ` }.P % % % % % % % % % % % % % % % % % % % % % % % % % O.F.9.% % % % % % % ; % , .                 ",
"                      . = ' - % % % % % % % ~.).4.U % % % % % % % % % % % % % % % % % % % % % % % ! O K.% % % % % % % % ; % , .                 ",
"                      . = ' - % % % % % % % % % Q P.x.% % % % % % % % % % % % % % % % % % % % a., e.F % % % % % % % % % ; % , .                 ",
"                      . = ' - % % % % % % % % % % x.Q.6.) % % % % % % % % % % % % % % % % P f R.I % % % % % % % % % % % ; % , .                 ",
"                      . = ' - % % % :.S.8 P % % % % = Q T.X & % % % % % % % % % % % % ~.i.Q.-.) % % % % % % % % % % % % ; % , .                 ",
"                      . = ' - % ~.'.z.U.{.F.9.% % % % % % ~ f.n.U.k.K.& I.E E E V.L.,.5.>.E % % % % % % % % % % % % % % ; % , .                 ",
"                      . = ' - % a X % % % i.W.{ % % % % % % % ) |.<.n.q.$.$.$.X.J L.V.% % % % % % % % % % % % % % % % % ; % , .                 ",
"                      . = ' - M ^.9.% % % ~.p.I.% % % % % % % % % % % { ~.{ { % % % % % % % % % % % % % - U > % % % % % ; % , .                 ",
"                      . = ' - M @.E % % % ~.,.I.% % % % % % % % % % % % % % % % % % % % % % % % % % % O.#./.6.% % % % % ; % , .                 ",
"                      . = ' - % U.I % % % ;.X.{ % % % % % % % % % % % % % % % % % % ; A.A.A.A.A.A.A.A.>.Y.O.3.A.A.A.g % ; % , .                 ",
"                      . = ' - % a.] A f Z.l.&.% % % % % % % % % % % % % % % % % % % O.U.U.U.U.U.U.U.U.M., O.v.U.U.U.1.% ; % , .                 ",
"                      . = ' - % % % 8 !.8.> % % % % % % % % % % % % % % % % % % % % % % % % % % % % % V._ `.>.% % % % % ; % , .                 ",
"                      . = ' - % % % % % % % % % % % % % % % % % % % % % % % % % % % % % % % % % % % % P E E k % % % % % ; % , .                 ",
"                      . = > F ; ; ; ; ; ; ; ; ; ; ; ; ; ; ; ; ; ; ; ; ; ; ; ; ; ; ; ; ; ; ; ; ; ; ; ; ; ; ; ; ; ; ; ; ; E % , .                 ",
"                      . : % % % % % % % % % % % % % % % % % % % % % % % % % % % % % % % % % % % % % % % % % % % % % % % % % ,..                 ",
"                      .  +U.U.U.U.U.U.U.U.U.U.U.U.U.U.U.U.U.U.U.U.U.U.U.U.U.U.U.U.U.U.U.U.U.U.U.U.U.U.U.U.U.U.U.U.U.U.U.U.J .+.                 "};
